<svg width="31" height="56" viewBox="0 0 31 56" fill="none" xmlns="http://www.w3.org/2000/svg">
<rect x="2" y="2.15771" width="26.4272" height="51.5695" rx="13.2136" stroke="#F5989D" stroke-width="4"/>
<path d="M14.9773 16.037C14.8349 16.0553 14.73 16.1813 14.7355 16.3273V39.3397L7.73743 32.9998C7.68427 32.9474 7.61281 32.9189 7.53884 32.9205C7.42308 32.9242 7.32176 33.001 7.28517 33.1129C7.24857 33.2248 7.2844 33.3482 7.37493 33.4218L14.8306 40.1752C14.9347 40.2675 15.0891 40.2675 15.1931 40.1752L22.6489 33.4218C22.7111 33.3751 22.7513 33.3041 22.7596 33.2257C22.7679 33.1474 22.7438 33.0691 22.693 33.0098C22.6421 32.9507 22.5691 32.9158 22.4919 32.9138C22.4146 32.9119 22.3401 32.9431 22.2864 32.9998L15.2882 39.3397V16.3273C15.2913 16.2447 15.2586 16.1648 15.1989 16.1089C15.139 16.0529 15.0581 16.0266 14.9775 16.037L14.9773 16.037Z" stroke="#F5989D" stroke-width="2.61398"/>
</svg>
