<svg width="41" height="41" viewBox="0 0 41 41" fill="none" xmlns="http://www.w3.org/2000/svg">
<path fill-rule="evenodd" clip-rule="evenodd" d="M34.9663 0.137085C35.3973 0.137085 35.5033 0.164773 35.8001 0.344745C35.9839 0.455497 36.21 0.67008 36.3089 0.815442C36.4008 0.953882 36.5139 1.24461 36.5633 1.45227C36.6057 1.65993 36.6199 1.97142 36.5916 2.14447C36.5704 2.31752 36.4361 2.64977 36.3019 2.89204C36.1676 3.12739 36.0263 3.33505 35.9909 3.35582C35.9556 3.37658 35.9203 3.41812 35.9203 3.45965C35.9203 3.50118 36.0263 3.52887 36.1464 3.52887C36.3372 3.52887 36.3937 3.56348 36.4644 3.73653C36.5492 3.92342 36.5775 3.94419 36.8177 3.90958C36.9661 3.88881 37.383 3.8542 38.4006 3.77114L38.3582 4.60178L38.0402 4.61562C37.8636 4.62947 37.588 4.65023 37.4184 4.671C37.1781 4.69869 37.1216 4.7333 37.1216 4.84405C37.1216 4.92019 37.3548 5.43934 37.6445 6.00695C37.9342 6.56763 38.1957 7.10063 38.2169 7.19753C38.2593 7.32905 38.2028 7.47441 38.0049 7.7859C37.8636 8.01433 37.6586 8.28429 37.5526 8.39504C37.4537 8.49887 37.3477 8.58193 37.3194 8.58193C37.2841 8.58193 36.8389 7.75129 35.3903 4.89943L34.3303 4.93404C33.7508 4.94788 33.2138 4.98941 33.136 5.02402C33.0654 5.05863 32.7898 5.4255 32.5212 5.84774C32.2527 6.26998 32.0336 6.65762 32.0336 6.71299C32.0336 6.76837 32.4011 7.5021 32.8392 8.33966C33.2844 9.17723 33.6802 9.9871 33.7296 10.1394C33.772 10.2917 33.8003 10.4232 33.7862 10.4301C33.772 10.437 33.447 10.4578 33.0583 10.4647C32.606 10.4716 32.2951 10.4509 32.1891 10.3955C32.0902 10.3401 31.7722 9.80713 31.2916 8.89342C30.8818 8.11124 30.5073 7.47441 30.4578 7.47441C30.4154 7.46749 30.2317 7.61978 30.055 7.79975C29.8783 7.97972 29.631 8.27044 29.5179 8.44349C29.3978 8.61654 29.2565 8.87958 29.207 9.03187C29.1575 9.18415 29.101 9.3572 29.0869 9.41258C29.0657 9.48872 28.9879 9.44719 28.8113 9.25337C28.6417 9.0734 28.571 8.92803 28.571 8.76883C28.571 8.62347 28.6629 8.39504 28.8537 8.11124C29.0091 7.87589 29.3978 7.42596 29.7229 7.10755C30.1398 6.69915 30.3377 6.45688 30.4083 6.23537C30.4649 6.06232 30.6627 5.72315 31.1644 5.0171L32.1043 5.05171L32.1396 4.58101L31.221 4.61562C30.4931 4.64331 30.2105 4.62947 29.843 4.53256C29.5886 4.47026 29.2565 4.35259 29.101 4.27645C28.9455 4.19338 28.6346 3.99957 28.4155 3.83344C28.034 3.54964 28.0057 3.5081 27.9986 3.23814C27.9916 3.07202 27.9916 2.8159 27.9986 2.66362C28.0128 2.51133 28.0622 2.31752 28.1188 2.23445C28.1753 2.14447 28.3378 1.99911 28.4862 1.89527C28.677 1.77068 28.8466 1.72222 29.101 1.7153C29.2989 1.7153 29.631 1.74991 29.843 1.79837C30.055 1.84682 30.4083 1.9645 30.6203 2.05448C30.8323 2.15139 31.1644 2.35213 31.3552 2.51133C31.546 2.67054 31.8923 3.03741 32.1255 3.32121C32.3587 3.60501 32.599 3.94419 32.6626 4.06879C32.7262 4.19338 32.811 4.29029 32.8463 4.29029C32.8887 4.29029 32.9099 3.98572 32.8958 3.48041C32.8746 2.89204 32.9028 2.53902 32.9806 2.21369C33.0442 1.9645 33.2067 1.54917 33.3339 1.27922C33.4682 1.00926 33.6731 0.690846 33.7932 0.573171C33.9133 0.448575 34.1183 0.296291 34.2455 0.240915C34.3656 0.185539 34.6907 0.144007 34.9663 0.137085V0.137085ZM34.2667 1.15462C34.196 1.22384 34.0829 1.38997 34.0123 1.52149C33.9416 1.653 33.8498 1.9645 33.8074 2.21369C33.772 2.46288 33.7296 2.85743 33.7155 3.08586C33.6943 3.45273 33.7155 3.52195 33.8356 3.5704C33.9133 3.60501 34.0052 3.70192 34.0476 3.78498L34.1183 3.93727C34.6059 3.70192 34.8885 3.49426 35.0581 3.32121C35.2348 3.14816 35.4539 2.87128 35.5528 2.69823C35.6729 2.49749 35.7436 2.24138 35.7648 1.97142C35.7931 1.63916 35.7719 1.51456 35.6659 1.35536C35.5952 1.24461 35.4539 1.12001 35.3549 1.07156C35.256 1.0231 35.1147 0.967726 35.0369 0.94696C34.9592 0.933116 34.7825 0.940038 34.6483 0.974648C34.514 1.00926 34.3444 1.09232 34.2667 1.15462ZM28.8395 2.86436C28.8395 2.94742 28.9667 3.12047 29.1151 3.25891C29.2635 3.39043 29.5603 3.5704 29.7723 3.64654C29.9843 3.72961 30.4154 3.84728 30.7263 3.90958C31.0373 3.97188 31.3694 4.01341 31.4683 3.99957C31.6308 3.97188 31.6026 3.93727 31.0796 3.41812C30.7687 3.12047 30.373 2.80206 30.1963 2.71899C29.9773 2.60824 29.7511 2.55979 29.4543 2.55979C29.2141 2.55979 28.9809 2.5944 28.9243 2.64285C28.8678 2.69131 28.8325 2.78821 28.8395 2.86436ZM8.25458 4.33874C9.12377 4.35951 9.7739 4.40796 10.0919 4.47718C10.3675 4.53948 10.7632 4.65716 10.9752 4.74022C11.1872 4.83021 11.5405 4.99633 11.7525 5.12093C11.9645 5.24553 12.3179 5.48088 12.5299 5.64008C12.7419 5.79929 13.0881 6.1177 13.3001 6.3392C13.5121 6.56071 13.8372 6.96218 14.035 7.23214C14.2258 7.5021 14.5933 8.13893 14.8406 8.65115C15.095 9.16338 15.5332 10.1325 15.8158 10.797C16.0985 11.4615 16.5508 12.569 16.8263 13.2543C17.0949 13.9396 17.4977 14.9848 17.7097 15.5732C17.9217 16.1615 18.2326 16.9714 18.3951 17.3729C18.5577 17.7744 19.2643 19.6433 19.9639 21.5261C20.6635 23.4089 21.4691 25.5616 21.7518 26.3023C22.0344 27.0429 22.4655 28.1366 22.6987 28.725C22.9389 29.3133 23.3135 30.2063 23.5396 30.6978C23.7587 31.1892 24.1473 32.006 24.4088 32.4975C24.6632 32.9889 25.0731 33.7088 25.3204 34.0895C25.5606 34.4702 25.9069 34.9686 26.0836 35.1971C26.2602 35.4255 26.663 35.8754 26.974 36.1938C27.292 36.5122 27.7513 36.9345 28.0057 37.1352C28.2601 37.329 28.6841 37.6267 28.9597 37.7928C29.2353 37.952 29.6946 38.1874 29.9843 38.312C30.2741 38.4435 30.691 38.5888 30.903 38.6511C31.115 38.7134 31.546 38.7896 31.857 38.8173C32.1679 38.845 32.6908 38.845 33.023 38.8173C33.4611 38.7757 33.7508 38.6996 34.0829 38.5473C34.3373 38.4366 34.6765 38.3189 35.1429 38.2427V38.5196C35.1429 38.7204 35.1005 38.838 34.9875 38.9419C34.8956 39.0249 34.726 39.1357 34.6129 39.198C34.4999 39.2534 34.1324 39.3849 33.8003 39.4818C33.4682 39.5856 32.6626 39.7656 31.9983 39.8763C31.1574 40.0217 30.4578 40.0978 29.6663 40.1255C28.8113 40.1532 28.3237 40.1324 27.6877 40.0494C27.2213 39.9802 26.5358 39.8556 26.1684 39.7656C25.8009 39.6687 25.3274 39.5302 25.1296 39.4541C24.9247 39.3779 24.4936 39.1841 24.1756 39.0318C23.8505 38.8726 23.4336 38.6442 23.2357 38.5196C23.0449 38.395 22.6421 38.0489 22.3383 37.7513C22.0415 37.4467 21.6316 37.0037 21.4196 36.7545C21.2076 36.5053 20.9038 36.1177 20.7483 35.8893C20.5928 35.6608 20.2466 35.1001 19.9851 34.6433C19.7166 34.1864 19.2997 33.3627 19.0453 32.809C18.7979 32.2552 18.169 30.76 17.6531 29.4864C17.1373 28.2127 16.5296 26.683 16.3105 26.0946C16.0844 25.5062 15.6816 24.4472 15.413 23.7411C15.1445 23.0351 14.558 21.4499 14.1128 20.2109C13.6676 18.9719 13.2577 17.899 13.2083 17.8228C13.1588 17.7467 12.9539 17.2621 12.756 16.7499C12.5581 16.2377 12.0776 14.9433 11.696 13.8773C11.3073 12.8113 10.8127 11.4892 10.6007 10.9354C10.3887 10.3817 10.0919 9.68253 9.92936 9.37797C9.7739 9.0734 9.4347 8.48503 9.17324 8.06278C8.91177 7.64054 8.53725 7.08678 8.32525 6.81682C8.12032 6.54686 7.74579 6.14539 7.49846 5.91696C7.25113 5.68854 6.73527 5.28706 6.36074 5.0171C5.98621 4.74714 5.68235 4.49103 5.67528 4.4495C5.67528 4.3872 5.85901 4.35259 6.29714 4.33182C6.63633 4.31798 7.51966 4.3249 8.25458 4.33874ZM4.86262 4.8925C5.01809 4.91327 5.30782 4.96865 5.49861 5.0171C5.69648 5.07248 6.04981 5.23861 6.29714 5.39089C6.5374 5.5501 6.7494 5.7093 6.7706 5.74391C6.78473 5.78544 6.7918 5.86851 6.7706 5.93773C6.75647 6.00003 6.58687 6.15231 6.40314 6.26998C6.21941 6.39458 5.85901 6.70607 5.60461 6.96218C5.35022 7.22522 5.00395 7.64054 4.82729 7.88973C4.65769 8.13893 4.39623 8.57501 4.2549 8.85882C4.1065 9.14262 3.94397 9.55102 3.88037 9.75868C3.81677 9.96634 3.73903 10.3678 3.69664 10.6447C3.6613 10.9147 3.62597 11.5376 3.6189 12.0222C3.61184 12.6452 3.64717 13.0397 3.73197 13.3581C3.79557 13.6073 3.95103 14.0088 4.07116 14.2511C4.19836 14.4933 4.43156 14.8117 4.60116 14.9571C4.77076 15.1163 5.02515 15.2548 5.20182 15.3032C5.36435 15.3447 5.57635 15.414 5.67528 15.4624C5.80248 15.5178 5.85901 15.6078 5.87314 15.7808C5.89434 15.9816 5.87314 16.03 5.73181 16.0715C5.63995 16.0992 5.38555 16.1269 5.16648 16.1269C4.90502 16.1269 4.52343 16.0508 4.1065 15.9193C3.7461 15.8085 3.19491 15.5662 2.88398 15.3932C2.51652 15.1786 2.11372 14.8602 1.71799 14.4726C1.36466 14.1195 1.02547 13.7042 0.891201 13.462C0.764003 13.2335 0.601471 12.8459 0.523739 12.5967C0.446006 12.3475 0.354141 11.9599 0.311741 11.7314C0.269342 11.503 0.234009 10.9839 0.234009 10.5755C0.234009 10.1602 0.276408 9.59947 0.332941 9.32951C0.389474 9.05263 0.537872 8.56117 0.66507 8.23583C0.785202 7.9105 1.02547 7.41904 1.18093 7.13523C1.34346 6.85835 1.67559 6.40842 1.92999 6.13847C2.18439 5.87543 2.51652 5.57086 2.67198 5.46703C2.82745 5.37012 3.13131 5.21092 3.34331 5.12785C3.5553 5.03787 3.92277 4.94096 4.15596 4.91327C4.38916 4.88558 4.70716 4.87866 4.86262 4.8925ZM33.3127 5.25937L34.2101 5.3009C34.7543 5.32859 35.1217 5.37705 35.1359 5.4255C35.15 5.46703 35.5528 6.26306 36.0333 7.19753C36.6128 8.31198 36.9096 8.96957 36.9096 9.12185C36.9096 9.27414 36.8036 9.49564 36.2383 10.3124H35.3196C34.6553 10.3194 34.3797 10.2917 34.3232 10.2294C34.2808 10.1809 33.8427 9.37797 33.348 8.44349C32.8604 7.50902 32.4576 6.69223 32.4576 6.62301C32.4506 6.55379 32.6414 6.22153 32.8816 5.87543L33.3127 5.25937ZM33.8709 11.953C34.4363 11.9668 35.0228 12.0083 35.1783 12.0429C35.3337 12.0775 35.8567 12.1537 36.3443 12.216C36.8318 12.2783 37.4537 12.3752 37.7222 12.4375C37.9978 12.4998 38.4077 12.6382 38.6409 12.7421C38.8741 12.8459 39.2416 13.0882 39.4536 13.2751C39.6656 13.4689 39.9199 13.7734 40.0189 13.9603C40.1461 14.2026 40.2026 14.4449 40.2238 14.8187C40.2521 15.2824 40.2309 15.3863 40.0401 15.7877C39.9129 16.0508 39.6938 16.3623 39.503 16.5492C39.3193 16.7222 38.9872 16.9714 38.7681 17.1029C38.542 17.2344 38.0897 17.4283 37.7576 17.5321C37.4254 17.6359 36.5351 17.8297 35.7789 17.9682C35.0228 18.0997 34.1465 18.2727 33.8356 18.3489C33.4399 18.4458 33.1502 18.5704 32.8675 18.7642C32.6414 18.9165 32.387 19.0411 32.3022 19.0342C32.2103 19.0342 32.1043 18.9788 32.0548 18.9165C32.0054 18.8473 31.97 18.7088 31.963 18.605C31.963 18.4804 32.0548 18.3212 32.2315 18.1343C32.4058 17.9497 32.6579 17.7905 32.9876 17.6567C33.2632 17.5459 33.9628 17.3175 34.5423 17.1375C35.1288 16.9645 35.7436 16.7637 35.9203 16.7015C36.0969 16.6392 36.316 16.5422 36.4149 16.4869C36.5139 16.4246 36.7117 16.2861 36.8601 16.1685C37.0085 16.0508 37.1922 15.8362 37.27 15.6839C37.3618 15.4832 37.4042 15.2478 37.4113 14.8533C37.4113 14.5003 37.376 14.1818 37.2982 13.988C37.2346 13.815 37.065 13.5242 36.9237 13.3374C36.7824 13.1505 36.5987 12.9566 36.5209 12.9013C36.4432 12.8528 36.2807 12.8113 36.1535 12.8113C36.0263 12.8113 35.6305 12.9013 35.2701 13.012C34.8179 13.1574 34.408 13.3512 33.9416 13.6488C33.5742 13.8842 33.1007 14.2372 32.8887 14.431C32.6838 14.6248 32.3163 15.0332 32.076 15.3378C31.8287 15.6424 31.4612 16.1685 31.2492 16.5146C31.0302 16.8537 30.6981 17.4352 30.5002 17.7951C30.3023 18.1551 29.9631 18.8404 29.7441 19.318C29.5321 19.7956 28.2106 22.5782 26.8185 25.5132C25.1084 29.0988 24.2392 30.85 24.1615 30.857C24.0837 30.8708 23.9777 30.7254 23.8081 30.3724C23.6809 30.0955 23.4336 29.5625 23.2711 29.1818C23.1085 28.8011 22.8117 28.0812 22.6209 27.5898C22.4231 27.0914 22.1616 26.3853 21.7871 25.3401L21.992 24.8348C22.1051 24.5579 22.5291 23.6511 22.9389 22.8136C23.3417 21.976 23.8152 20.9793 23.9848 20.5985C24.1544 20.2178 24.7268 19.048 25.2568 18.0028C25.7938 16.9576 26.451 15.7739 26.7196 15.3724C26.9881 14.9709 27.4757 14.3687 27.8008 14.0296C28.1258 13.6904 28.5851 13.2751 28.8183 13.102C29.0515 12.929 29.5109 12.6659 29.843 12.5136C30.1751 12.3614 30.6698 12.1883 30.9383 12.1329C31.2139 12.0775 31.751 12.0083 32.1396 11.9737C32.5283 11.946 33.3056 11.9322 33.8709 11.953Z" fill="#F5989C"/>
</svg>
